<?xml version="1.0" encoding="UTF-8" standalone="no"?>
<!-- Created with Inkscape (http://www.inkscape.org/) -->

<svg
   width="55.832958mm"
   height="55.833351mm"
   viewBox="0 0 55.832958 55.833351"
   version="1.1"
   id="svg1"
   xml:space="preserve"
   xmlns="http://www.w3.org/2000/svg"
   xmlns:svg="http://www.w3.org/2000/svg"><defs
     id="defs1" /><g
     id="layer1"
     transform="translate(-577.23994,-367.00606)"><g
       id="g131"><path
         d="m 600.43245,367.00615 c -2.77871,0 -5.01624,2.23752 -5.01624,5.01623 v 6.46265 c -7.04448,3.50743 -11.67945,10.51083 -12.15482,18.36581 -0.0485,0.44307 -0.0834,0.88753 -0.1049,1.33273 v 0.0134 2.64222 c 0,12.18772 9.81249,22.00021 22.00021,22.00021 12.18772,0 21.99969,-9.81249 21.99969,-22.00021 v -2.6293 -0.0791 -2.30735 -23.80114 c 0,-2.77869 -2.23702,-5.01623 -5.01572,-5.01623 h -12.26023 z"
         style="fill:#bcd5f0;fill-opacity:1;stroke-width:1.47023"
         id="path125" /><path
         d="m 605.15681,390.18948 c -0.33534,0.0166 -0.66933,0.0542 -0.99994,0.11266 -3.98119,0.50146 -6.97509,3.8748 -7.00009,7.88737 -10e-6,4.41822 3.5818,8.00004 8.00003,8.00003 4.41822,10e-6 8.00004,-3.58181 8.00003,-8.00003 -0.004,-4.02893 -3.00277,-7.4267 -7.00009,-7.93027 -0.33152,-0.0442 -0.6655,-0.0678 -0.99994,-0.0698 z"
         style="fill:#acc2d4;fill-opacity:1;stroke-width:1.88014"
         id="path126" /><path
         d="m 598.88054,403.14026 c 1.46514,1.85456 3.72924,3.0484 6.27611,3.0484 4.41818,10e-6 8.00004,-3.58186 8.00002,-8.00003 -0.003,-2.91046 -1.57299,-5.4847 -3.94911,-6.8833 a 7.9500868,7.9500868 0 0 1 2.13062,5.34024 7.9500868,7.9500868 0 0 1 -7.9499,7.95042 7.9500868,7.9500868 0 0 1 -4.50774,-1.45573 z"
         style="fill:#5a7c8d;fill-opacity:1;stroke-width:2.23988"
         id="path127" /><path
         d="m 605.15552,371.00642 c -1.65642,6.7e-4 -2.99896,1.34379 -2.99878,3.00033 0.0116,1.26117 0.81079,2.38046 1.99987,2.80086 v 11.47992 c -5.09146,0.51142 -8.97555,4.78419 -9.00049,9.90121 5e-5,5.52284 4.47757,10.00014 10.00044,9.99991 5.52264,-5e-5 9.99983,-4.47727 9.9999,-9.99991 -0.0249,-5.11683 -3.90872,-9.38955 -8.99997,-9.90121 v -11.47992 c 0.83797,-0.30304 1.49789,-0.96296 1.80093,-1.80091 h 7.37836 5.2e-4 0.35915 3.30729 0.30592 c 0.12938,0.01 0.25573,0.032 0.37672,0.0651 0.12099,0.0332 0.23737,0.0778 0.34779,0.13178 0.11041,0.054 0.2155,0.1182 0.31316,0.19067 0.0977,0.0725 0.18859,0.15373 0.2713,0.24237 0.33111,0.35501 0.5337,0.83006 0.53743,1.34978 1.7e-4,0.002 3.5e-4,0.003 5.2e-4,0.005 -1.5e-4,0.005 -3.3e-4,0.01 -5.2e-4,0.0145 v 3.45044 1.93786 h 0.002 v 10.25158 8.19277 c 3e-5,8.83641 -7.16365,16.00009 -16.00005,16.00007 -8.83481,-2.5e-4 -15.99757,-7.16164 -15.99954,-15.99645 l -5.2e-4,-0.004 5.2e-4,-0.005 c -0.003,-0.55019 -0.45027,-0.9945 -1.00046,-0.99478 -0.55038,8.6e-4 -0.99684,0.44593 -0.99942,0.99633 l -5.2e-4,0.004 5.2e-4,0.007 c 10e-5,0.0172 2.1e-4,0.0342 5.1e-4,0.0512 0.0315,9.91435 8.077,17.94173 17.99787,17.94205 9.94085,-5e-5 17.99991,-8.05908 17.99994,-17.99994 v -5.1e-4 -23.84712 c -10e-6,-0.13631 -0.007,-0.27083 -0.0207,-0.40359 -0.003,-0.0292 -0.009,-0.0573 -0.0129,-0.0863 -0.0125,-0.10197 -0.026,-0.20338 -0.046,-0.30283 -0.008,-0.0417 -0.0208,-0.0818 -0.0305,-0.12299 -0.0199,-0.0847 -0.0394,-0.16964 -0.0646,-0.25218 -0.0151,-0.0493 -0.0343,-0.0967 -0.0512,-0.14521 -0.0246,-0.0708 -0.0486,-0.1419 -0.077,-0.21084 -0.0236,-0.0571 -0.0508,-0.11221 -0.077,-0.16795 -0.027,-0.0577 -0.053,-0.11589 -0.0827,-0.17208 -0.0314,-0.0594 -0.0665,-0.11658 -0.10077,-0.17415 -0.0291,-0.049 -0.0577,-0.0986 -0.0889,-0.14624 -0.0395,-0.0602 -0.0819,-0.1183 -0.12454,-0.17622 -0.031,-0.0422 -0.0615,-0.0846 -0.094,-0.12557 -0.0482,-0.0605 -0.0993,-0.1187 -0.1509,-0.17622 -0.0289,-0.0323 -0.0574,-0.0648 -0.0873,-0.0961 -0.0601,-0.0628 -0.1225,-0.12311 -0.18655,-0.1819 -0.0253,-0.0233 -0.0506,-0.0466 -0.0765,-0.0693 -0.0703,-0.0612 -0.1426,-0.11994 -0.21704,-0.17621 -0.0227,-0.0172 -0.0452,-0.0345 -0.0682,-0.0512 -0.079,-0.0572 -0.16015,-0.11141 -0.24338,-0.16278 -0.0204,-0.0126 -0.0409,-0.025 -0.0615,-0.0372 -0.0902,-0.0535 -0.18235,-0.10397 -0.27697,-0.15038 -0.0129,-0.006 -0.0258,-0.0124 -0.0388,-0.0186 -0.10017,-0.0478 -0.20291,-0.0917 -0.30746,-0.13126 -0.0117,-0.004 -0.0234,-0.009 -0.0351,-0.0129 -0.34456,-0.12651 -0.71142,-0.20796 -1.09296,-0.23513 h -0.56069 -5.2e-4 -10.90372 c -0.42286,-1.19586 -1.55217,-1.99654 -2.8205,-1.99987 h -5.2e-4 z m 10e-4,19.1823 c 0.33442,0.002 0.66841,0.0256 0.99992,0.0698 3.99731,0.50357 6.99656,3.90136 7.00009,7.93027 10e-6,4.41818 -3.58184,8.00003 -8.00001,8.00002 -4.4182,1e-5 -8.00005,-3.58184 -8.00004,-8.00002 0.025,-4.01255 3.01893,-7.38592 7.0001,-7.88738 0.3306,-0.0585 0.6646,-0.0961 0.99994,-0.11265 z"
         style="fill:#232f37;stroke-width:2.01574"
         id="path128" /><path
         d="m 605.04849,390.19747 c -0.29898,0.0188 -0.59691,0.0517 -0.89193,0.10387 -6.32767,0.56339 -6.8755,2.52807 -7.00009,7.88738 0,0.39812 0.0389,0.78638 0.0951,1.16892 3.05093,6.04792 13.44831,-9.16017 7.79693,-9.16017 z"
         style="fill:#eef1e9;stroke-width:2.18081"
         id="path129" /><path
         d="m 605.15552,371.00642 c -1.65642,6.7e-4 -2.99896,1.34379 -2.99878,3.00033 0.0116,1.26117 0.81079,2.38046 1.99987,2.80086 v 11.47992 c -5.09146,0.51142 -8.97555,4.78419 -9.00049,9.90121 5e-5,5.52284 4.47757,10.00014 10.00044,9.99991 5.52264,-5e-5 9.99983,-4.47727 9.9999,-9.99991 -0.0249,-5.11683 -3.90872,-9.38955 -8.99997,-9.90121 v -11.47992 c 0.83797,-0.30304 1.49789,-0.96296 1.80093,-1.80091 h 7.37836 5.2e-4 0.35915 3.30729 0.30592 c 0.12938,0.01 0.25573,0.032 0.37672,0.0651 0.12099,0.0332 0.23737,0.0778 0.34779,0.13178 0.11041,0.054 0.2155,0.1182 0.31316,0.19067 0.0977,0.0725 0.18859,0.15373 0.2713,0.24237 0.33111,0.35501 0.5337,0.83006 0.53743,1.34978 1.7e-4,0.002 3.5e-4,0.003 5.2e-4,0.005 -1.5e-4,0.005 -3.3e-4,0.01 -5.2e-4,0.0145 v 3.45044 1.93786 h 0.002 v 10.25158 8.19277 c 3e-5,8.83641 -7.16365,16.00009 -16.00005,16.00007 -8.83481,-2.5e-4 -15.99757,-7.16164 -15.99954,-15.99645 l -5.2e-4,-0.004 5.2e-4,-0.005 c -0.003,-0.55019 -0.45027,-0.9945 -1.00046,-0.99478 -0.55038,8.6e-4 -0.99684,0.44593 -0.99942,0.99633 l -5.2e-4,0.004 5.2e-4,0.007 c 10e-5,0.0172 2.1e-4,0.0342 5.1e-4,0.0512 0.0315,9.91435 8.077,17.94173 17.99787,17.94205 9.94085,-5e-5 17.99991,-8.05908 17.99994,-17.99994 v -5.1e-4 -23.84712 c -10e-6,-0.13631 -0.007,-0.27083 -0.0207,-0.40359 -0.003,-0.0292 -0.009,-0.0573 -0.0129,-0.0863 -0.0125,-0.10197 -0.026,-0.20338 -0.046,-0.30283 -0.008,-0.0417 -0.0208,-0.0818 -0.0305,-0.12299 -0.0199,-0.0847 -0.0394,-0.16964 -0.0646,-0.25218 -0.0151,-0.0493 -0.0343,-0.0967 -0.0512,-0.14521 -0.0246,-0.0708 -0.0486,-0.1419 -0.077,-0.21084 -0.0236,-0.0571 -0.0508,-0.11221 -0.077,-0.16795 -0.027,-0.0577 -0.053,-0.11589 -0.0827,-0.17208 -0.0314,-0.0594 -0.0665,-0.11658 -0.10077,-0.17415 -0.0291,-0.049 -0.0577,-0.0986 -0.0889,-0.14624 -0.0395,-0.0602 -0.0819,-0.1183 -0.12454,-0.17622 -0.031,-0.0422 -0.0615,-0.0846 -0.094,-0.12557 -0.0482,-0.0605 -0.0993,-0.1187 -0.1509,-0.17622 -0.0289,-0.0323 -0.0574,-0.0648 -0.0873,-0.0961 -0.0601,-0.0628 -0.1225,-0.12311 -0.18655,-0.1819 -0.0253,-0.0233 -0.0506,-0.0466 -0.0765,-0.0693 -0.0703,-0.0612 -0.1426,-0.11994 -0.21704,-0.17621 -0.0227,-0.0172 -0.0452,-0.0345 -0.0682,-0.0512 -0.079,-0.0572 -0.16015,-0.11141 -0.24338,-0.16278 -0.0204,-0.0126 -0.0409,-0.025 -0.0615,-0.0372 -0.0902,-0.0535 -0.18235,-0.10397 -0.27697,-0.15038 -0.0129,-0.006 -0.0258,-0.0124 -0.0388,-0.0186 -0.10017,-0.0478 -0.20291,-0.0917 -0.30746,-0.13126 -0.0117,-0.004 -0.0234,-0.009 -0.0351,-0.0129 -0.34456,-0.12651 -0.71142,-0.20796 -1.09296,-0.23513 h -0.56069 -5.2e-4 -10.90372 c -0.42286,-1.19586 -1.55217,-1.99654 -2.8205,-1.99987 h -5.2e-4 z m 10e-4,19.1823 c 0.33442,0.002 0.66841,0.0256 0.99992,0.0698 3.99731,0.50357 6.99656,3.90136 7.00009,7.93027 10e-6,4.41818 -3.58184,8.00003 -8.00001,8.00002 -4.4182,1e-5 -8.00005,-3.58184 -8.00004,-8.00002 0.025,-4.01255 3.01893,-7.38592 7.0001,-7.88738 0.3306,-0.0585 0.6646,-0.0961 0.99994,-0.11265 z"
         style="fill:#232f37;stroke-width:2.01574"
         id="path130" /><circle
         style="fill:#232f37;fill-opacity:1;stroke-width:2.22587"
         id="circle130"
         cx="605.15686"
         cy="398.18945"
         r="2" /><rect
         style="opacity:0;fill:#acc2d4;fill-opacity:1;stroke-width:1.36473"
         id="rect130"
         width="55.833"
         height="55.833"
         x="577.23993"
         y="367.00623"
         ry="0" /></g></g></svg>
